# xmcd
#
# Track frame offsets:
#	150
#	8953
#	21017
#	30333
#	39378
#	52420
#	63501
#	72773
#	85978
#	98637
#	106570
#	116739
#	127870
#	136790
#	145607
#	157679
#	167971
#	178770
#	188841
#	201567
#	211451
#	225376
#	234677
#	248699
#	260454
#
# Disc length: 3628 seconds
#
# Revision: 0
# Processed by: cddbd v1.5.1PL0 Copyright (c) Steve Scherf et al.
# Submitted via: EasyCDDAExtractor 8.2.1.1
#
DISCID=4e0e2a19
DTITLE=Connie Stevens - The Hank Williams Songbook
DYEAR=1900
DGENRE=Country
TTITLE0=Hey! Good Lookin'
TTITLE1=I Can't Help It
TTITLE2=Your Cheatin' Heart
TTITLE3=Jambalaya
TTITLE4=A Teardrop On A Rose
TTITLE5=You Win Again
TTITLE6=Settin' The Woods On Fire
TTITLE7=I'm So Lonesome I Could Cry
TTITLE8=Cold, Cold heart
TTITLE9=Honky Tonkin'
TTITLE10=Nobody's Lonesome For Me
TTITLE11=May You Never Be Alone
TTITLE12=Sixteen Reasons
TTITLE13=Apollo
TTITLE14=All Of My Life
TTITLE15=Why Do I Cry For Joey
TTITLE16=A Little Kiss Is A Kiss, Is A Kiss
TTITLE17=Little Sister
TTITLE18=Make Believe Lover
TTITLE19=Why'd Wanna Make Me Cry
TTITLE20=Tick Tock
TTITLE21=Lost In Wonderland
TTITLE22=Now That You've Gone
TTITLE23=I Couldn't Say No
TTITLE24=In My room
EXTD=
EXTT0=
EXTT1=
EXTT2=
EXTT3=
EXTT4=
EXTT5=
EXTT6=
EXTT7=
EXTT8=
EXTT9=
EXTT10=
EXTT11=
EXTT12=
EXTT13=
EXTT14=
EXTT15=
EXTT16=
EXTT17=
EXTT18=
EXTT19=
EXTT20=
EXTT21=
EXTT22=
EXTT23=
EXTT24=
PLAYORDER=
